<svg xmlns="http://www.w3.org/2000/svg" xmlns:xlink="http://www.w3.org/1999/xlink" class="si-glyph si-glyph-document-help" version="1.1" viewBox="0 0 16 16"><title>Document-help</title><g fill="none" fill-rule="evenodd" stroke="none" stroke-width="1"><g fill="#434343"><path d="M5.969,0.062 L0.031,0.062 L0.031,15.982 L10.969,15.982 L10.969,4.062 L5.969,4.062 L5.969,0.062 L5.969,0.062 Z M6.016,13.034 L4.954,13.034 L4.954,11.953 L6.016,11.953 L6.016,13.034 L6.016,13.034 Z M7.016,5.984 L7.016,6.988 L8.017,6.984 L8.017,9.015 L7.016,9.015 L7.016,10.011 L6.016,10.011 L6.016,11.022 L4.969,11.022 L4.969,8.968 L6.985,8.968 L6.985,7 L4.016,7 L4.016,8.031 L2.969,8.031 L2.969,6.969 L3.969,6.969 L3.969,5.985 L7.016,5.985 L7.016,5.984 Z" class="si-glyph-fill" transform="translate(3.000000, 0.000000)"/><path d="M7.04,0.076 L7.04,2.988 L11,2.988 L7.04,0.076 Z" class="si-glyph-fill" transform="translate(3.000000, 0.000000)"/></g></g></svg>