<svg xmlns="http://www.w3.org/2000/svg" xmlns:xlink="http://www.w3.org/1999/xlink" class="si-glyph si-glyph-billiard-ball" version="1.1" viewBox="0 0 17 16"><title>917</title><g fill="none" fill-rule="evenodd" stroke="none" stroke-width="1"><g fill="#434343" transform="translate(1.000000, 0.000000)"><path d="M8.01,0.057 C3.627,0.057 0.071,3.611 0.071,7.997 C0.071,12.382 3.628,15.937 8.01,15.937 C12.395,15.937 15.95,12.381 15.95,7.997 C15.95,3.61 12.395,0.057 8.01,0.057 L8.01,0.057 Z M7.01,12.114 C4.206,12.114 1.934,9.831 1.934,7.015 C1.934,4.201 4.206,1.917 7.01,1.917 C9.815,1.917 12.088,4.2 12.088,7.015 C12.088,9.831 9.814,12.114 7.01,12.114 L7.01,12.114 Z" class="si-glyph-fill"/><rect width=".938" height="5.938" x="7" y="4" class="si-glyph-fill"/><rect width="1.969" height=".938" x="6" y="4" class="si-glyph-fill"/></g></g></svg>