<svg xmlns="http://www.w3.org/2000/svg" xmlns:xlink="http://www.w3.org/1999/xlink" class="si-glyph si-glyph-fullscreen" version="1.1" viewBox="0 0 17 17"><title>1244</title><g fill="none" fill-rule="evenodd" stroke="none" stroke-width="1"><g fill="#434343" transform="translate(1.000000, 3.000000)"><rect width="12" height="8" x="2" y="2" class="si-glyph-fill"/><path d="M2.918,11.938 L0,11.938 L0,9.062 L1,9.062 L1,11.042 L2.918,11.042 L2.918,11.938 Z" class="si-glyph-fill"/><path d="M16,11.938 L13.062,11.938 L13.062,11.042 L15,11.042 L15,9.058 L16,9.058 L16,11.938 Z" class="si-glyph-fill"/><path d="M16,2.917 L15,2.917 L15,0.967 L13.057,0.967 L13.057,0.021 L16,0.021 L16,2.917 Z" class="si-glyph-fill"/><path d="M1,2.938 L0,2.938 L0,0 L2.938,0 L2.938,0.938 L1,0.938 L1,2.938 Z" class="si-glyph-fill"/></g></g></svg>