<svg xmlns="http://www.w3.org/2000/svg" xmlns:xlink="http://www.w3.org/1999/xlink" class="si-glyph si-glyph-wall" version="1.1" viewBox="0 0 17 16"><title>846</title><g fill="none" fill-rule="evenodd" stroke="none" stroke-width="1"><g fill="#434343" transform="translate(0.000000, 3.000000)"><rect width="4" height="2" x="12" y="0" class="si-glyph-fill"/><rect width="3" height="1.957" x="10" y="3" class="si-glyph-fill"/><rect width="2" height="1.969" x="14" y="3" class="si-glyph-fill"/><rect width="2" height="2" x="0" y="6" class="si-glyph-fill"/><rect width="4" height="2" x="3" y="6" class="si-glyph-fill"/><rect width="3" height="2" x="8" y="6" class="si-glyph-fill"/><rect width="4" height="2" x="12" y="6" class="si-glyph-fill"/><rect width="4" height="1.957" x="5" y="3" class="si-glyph-fill"/><rect width="4" height="1.957" x="0" y="3" class="si-glyph-fill"/><rect width="3" height="1.957" x="10" y="9" class="si-glyph-fill"/><rect width="2" height="1.969" x="14" y="9" class="si-glyph-fill"/><rect width="4" height="1.957" x="5" y="9" class="si-glyph-fill"/><rect width="4" height="1.957" x="0" y="9" class="si-glyph-fill"/><rect width="3" height="2" x="8" y="0" class="si-glyph-fill"/><rect width="4" height="2" x="3" y="0" class="si-glyph-fill"/><rect width="2" height="2" x="0" y="0" class="si-glyph-fill"/></g></g></svg>