<svg xmlns="http://www.w3.org/2000/svg" xmlns:xlink="http://www.w3.org/1999/xlink" class="si-glyph si-glyph-brightness" version="1.1" viewBox="0 0 17 16"><title>954</title><g fill="none" fill-rule="evenodd" stroke="none" stroke-width="1"><g fill="#434343" transform="translate(1.000000, 0.000000)"><path d="M8.041,3.001 C5.326,3.001 3.125,5.239 3.125,8 C3.125,10.762 5.326,13 8.041,13 C10.758,13 12.958,10.762 12.958,8 C12.958,5.239 10.758,3.001 8.041,3.001 L8.041,3.001 Z M8.083,11.227 C6.301,11.227 4.856,9.783 4.856,8 C4.856,6.219 6.3,4.774 8.083,4.774 C9.866,4.774 11.31,6.218 11.31,8 C11.31,9.782 9.865,11.227 8.083,11.227 L8.083,11.227 Z" class="si-glyph-fill"/><rect width="1.958" height="2" x="7" y="0" class="si-glyph-fill"/><rect width="2" height="1.958" x="7" y="14" class="si-glyph-fill"/><rect width="1.958" height="1.958" x="14" y="7" class="si-glyph-fill"/><rect width="1.958" height="2" x="0" y="7" class="si-glyph-fill"/><rect width="1.876" height="1.873" x="12.69" y="2.207" class="si-glyph-fill" transform="translate(13.690300, 3.207000) rotate(45.040515) translate(-13.690300, -3.207000)"/><rect width="1.875" height="1.933" x="1.467" y="13.128" class="si-glyph-fill" transform="translate(2.466500, 14.128400) rotate(45.024309) translate(-2.466500, -14.128400)"/><rect width="1.928" height="1.875" x="12.55" y="13.192" class="si-glyph-fill" transform="translate(13.550300, 14.192200) rotate(45.000000) translate(-13.550300, -14.192200)"/><rect width="1.84" height="1.875" x="1.443" y="2.19" class="si-glyph-fill" transform="translate(2.443400, 3.189900) rotate(45.000000) translate(-2.443400, -3.189900)"/></g></g></svg>