<svg xmlns="http://www.w3.org/2000/svg" xmlns:xlink="http://www.w3.org/1999/xlink" class="si-glyph si-glyph-spray" version="1.1" viewBox="0 0 17 16"><title>768</title><g fill="none" fill-rule="evenodd" stroke="none" stroke-width="1"><g fill="#434343"><path d="M0.254,0.021 L0.031,0.969 L1.984,0.984 L0.254,0.021 Z" class="si-glyph-fill" transform="translate(5.000000, 0.000000)"/><path d="M7.963,7.02412122 L7.963,6.07400484 C7.963,6.07400484 6.3,3.04047651 5.936,3.04047651 L4.969,3.04047651 L4.985,0.015 L3.016,0.015 L3.016,1.9806539 L4.016,1.9806539 L4.016,3.04047651 L3.065,3.04047651 C2.702,3.04047651 1.006,6.07400484 1.006,6.07400484 L1.006,15.3426719 C1.006,15.7130562 1.33,16.015 1.731,16.015 L7.24,16.015 C7.639,16.015 7.964,15.7130562 7.964,15.3426719 L7.964,7.04525728 L7.982,7.04525728 C7.975,7.03921841 7.969,7.03116657 7.963,7.02412122 L7.963,7.02412122 Z M7.016,15.031 L5.994,15.031 L5.994,7 L7.016,7 L7.016,15.031 L7.016,15.031 Z" class="si-glyph-fill" transform="translate(5.000000, 0.000000)"/><path d="M0.027,2.031 L0.259,2.945 L1.938,2.062 L0.027,2.031 Z" class="si-glyph-fill" transform="translate(5.000000, 0.000000)"/></g></g></svg>