<svg xmlns="http://www.w3.org/2000/svg" xmlns:xlink="http://www.w3.org/1999/xlink" class="si-glyph si-glyph-ruler" version="1.1" viewBox="0 0 17 16"><title>1081</title><g fill="none" fill-rule="evenodd" stroke="none" stroke-width="1"><path fill="#434343" d="M5,0 L5,16 L13,16 L13,0 L5,0 L5,0 Z M6,2 L8,2 L8,3 L6,3 L6,2 L6,2 Z M6,8 L8,8 L8,9 L6,9 L6,8 L6,8 Z M8,15 L6,15 L6,14 L8,14 L8,15 L8,15 Z M9,12 L6,12 L6,11 L9,11 L9,12 L9,12 Z M9,6 L6,6 L6,5 L9,5 L9,6 L9,6 Z" class="si-glyph-fill"/></g></svg>