<svg xmlns="http://www.w3.org/2000/svg" xmlns:xlink="http://www.w3.org/1999/xlink" class="si-glyph si-glyph-bullet-list" version="1.1" viewBox="0 0 16 16"><title>111</title><g fill="none" fill-rule="evenodd" stroke="none" stroke-width="1"><g fill="#434343" transform="translate(0.000000, 2.000000)"><path d="M3.016,7 L0.0159999999,7 L0.0159999999,4 L3.016,4 L3.016,7 L3.016,7 Z M0.953,6 L1.953,6 L1.953,4.969 L0.953,4.969 L0.953,6 L0.953,6 Z" class="si-glyph-fill"/><path d="M2.969,10.986 L0.0159999999,10.986 L0.0159999999,8 L2.969,8 L2.969,10.986 L2.969,10.986 Z M0.954,10 L1.954,10 L1.954,9 L0.954,9 L0.954,10 L0.954,10 Z" class="si-glyph-fill"/><path d="M3.016,3 L0.0159999999,3 L0.0159999999,0 L3.016,0 L3.016,3 L3.016,3 Z M0.953,2 L1.953,2 L1.953,0.969 L0.953,0.969 L0.953,2 L0.953,2 Z" class="si-glyph-fill"/><rect width="10.977" height=".96" x="5" y="5" class="si-glyph-fill"/><rect width="10.977" height=".96" x="5" y="1" class="si-glyph-fill"/><rect width="10.977" height=".914" x="5" y="9" class="si-glyph-fill"/></g></g></svg>