<svg xmlns="http://www.w3.org/2000/svg" xmlns:xlink="http://www.w3.org/1999/xlink" class="si-glyph si-glyph-note" version="1.1" viewBox="0 0 17 16"><title>842</title><g fill="none" fill-rule="evenodd" stroke="none" stroke-width="1"><g fill="#434343" transform="translate(1.000000, 0.000000)"><path d="M13.938,0 L2,0 C0.896,0 0,0.896 0,2 L0,4 L16,4 L15.938,2 C15.938,0.896 15.042,0 13.938,0 Z" class="si-glyph-fill"/><rect width="4" height="2" x="0" y="8" class="si-glyph-fill"/><rect width="4" height="2" x="0" y="11" class="si-glyph-fill"/><path d="M4,16 L4,14 L0,14 C0.066,15.045 0.927,16 1.987,16 L4,16 Z" class="si-glyph-fill"/><rect width="4" height="2" x="0" y="5" class="si-glyph-fill"/><path d="M5,5 L5,7 L16,7 L15.938,5 L5,5 Z" class="si-glyph-fill"/><path d="M5,11 L5,13 L16,13 L15.938,11 L5,11 Z" class="si-glyph-fill"/><path d="M13.938,16 C15,16 15.935,15.045 16,14 L5,14 L5,16 L13.938,16 Z" class="si-glyph-fill"/><path d="M5,8 L5,10 L16,10 L15.938,8 L5,8 Z" class="si-glyph-fill"/></g></g></svg>