<svg xmlns="http://www.w3.org/2000/svg" xmlns:xlink="http://www.w3.org/1999/xlink" class="si-glyph si-glyph-crown" version="1.1" viewBox="0 0 17 16"><title>1065</title><g fill="none" fill-rule="evenodd" stroke="none" stroke-width="1"><g fill="#434343" transform="translate(1.000000, 0.000000)"><path d="M12.971,15.23 C12.971,15.653 12.554,15.998 12.039,15.998 L3.951,15.998 C3.436,15.998 3.019,15.653 3.019,15.23 L3.019,14.78 C3.019,14.358 3.436,14.013 3.951,14.013 L12.039,14.013 C12.554,14.013 12.971,14.358 12.971,14.78 L12.971,15.23 L12.971,15.23 Z" class="si-glyph-fill"/><path d="M12.465,12.979 L3.547,12.979 L1.421,5.365 L2.562,4.656 L5.573,8.907 L7.345,3.042 L8.763,3.042 L10.357,9.262 L13.545,4.656 L14.591,5.365 L12.465,12.979 Z" class="si-glyph-fill"/><circle cx="14.968" cy="2.968" r=".968" class="si-glyph-fill"/><circle cx="7.964" cy=".964" r=".964" class="si-glyph-fill"/><ellipse cx=".983" cy="2.974" class="si-glyph-fill" rx=".983" ry=".974"/></g></g></svg>