<svg xmlns="http://www.w3.org/2000/svg" xmlns:xlink="http://www.w3.org/1999/xlink" class="si-glyph si-glyph-umbrella-sea" version="1.1" viewBox="0 0 17 17"><title>988</title><g fill="none" fill-rule="evenodd" stroke="none" stroke-width="1"><path fill="#434343" d="M8.469,1 L1,7 L1,8.984 L1.953,8.984 L1.953,7.984 L4,7.984 L4,8.984 L5.969,8.984 L5.969,7.984 L8.016,7.984 L8.016,8.578 L8.016,8.984 L8.016,15.031 L5.002,15.031 L5.002,16.031 L3,16.031 L3,16.938 L13.938,16.938 L13.938,16.031 L12,16.031 L12,15.031 L8.964,15.031 L8.964,8.984 L8.969,8.984 L8.969,7.984 L11.047,7.984 L11.047,8.984 L13,8.984 L13,7.984 L15.016,7.984 L15.016,8.984 L16,8.984 L16,7 L8.469,1 Z" class="si-glyph-fill"/></g></svg>