<svg xmlns="http://www.w3.org/2000/svg" xmlns:xlink="http://www.w3.org/1999/xlink" class="si-glyph si-glyph-bed" version="1.1" viewBox="0 0 17 16"><title>829</title><g fill="none" fill-rule="evenodd" stroke="none" stroke-width="1"><g fill="#434343" transform="translate(1.000000, 5.000000)"><path d="M15.031,2.016 L15.031,3.031 L1.938,3.031 L1.938,0.078 L0.009,0.078 L0.009,3.031 L0.009,5.246 L0.009,5.971 L1.938,5.971 L1.938,4.938 L15.031,4.938 L15.031,5.971 L15.969,5.971 L15.969,2.016 L15.031,2.016 Z" class="si-glyph-fill"/><ellipse cx="3.985" cy=".97" class="si-glyph-fill" rx=".985" ry=".97"/><path d="M13.991,1.998 L6.013,1.998 L6.013,1.132 C6.013,0.534 6.656,0.049 7.447,0.049 L12.556,0.049 C13.349,0.049 13.991,0.534 13.991,1.132 L13.991,1.998 L13.991,1.998 Z" class="si-glyph-fill"/></g></g></svg>