<svg xmlns="http://www.w3.org/2000/svg" xmlns:xlink="http://www.w3.org/1999/xlink" class="si-glyph si-glyph-trolley-full" version="1.1" viewBox="0 0 16 16"><title>Trolley-full</title><g fill="none" fill-rule="evenodd" stroke="none" stroke-width="1"><g fill="#434343" transform="translate(0.000000, 2.000000)"><path d="M5.80004883,9 L3.451,0 L0.00199999998,0 L0.0273319378,0.9375 L2.46533194,0.9375 L5.06579604,10 L15.969,10 L15.969,9 L5.80004883,9 Z" class="si-glyph-fill"/><rect width="1.958" height="1.955" x="7" y="6" class="si-glyph-fill"/><rect width="1.953" height="2" x="10" y="6" class="si-glyph-fill"/><rect width="1.938" height="1.899" x="10" y="3" class="si-glyph-fill"/><rect width="1.953" height="1.941" x="10" y="0" class="si-glyph-fill"/><rect width="1.953" height="1.906" x="13" y="6" class="si-glyph-fill"/><rect width="1.938" height="1.899" x="13" y="3" class="si-glyph-fill"/><rect width="1.953" height="1.941" x="13" y="0" class="si-glyph-fill"/><rect width="1.938" height="1.899" x="7" y="3" class="si-glyph-fill"/><rect width="1.953" height="1.941" x="7" y="0" class="si-glyph-fill"/><ellipse cx="7.494" cy="10.471" class="si-glyph-fill" rx="1.494" ry="1.471"/><circle cx="13.487" cy="10.487" r="1.487" class="si-glyph-fill"/></g></g></svg>