<svg xmlns="http://www.w3.org/2000/svg" xmlns:xlink="http://www.w3.org/1999/xlink" class="si-glyph si-glyph-document-rss" version="1.1" viewBox="0 0 16 16"><title>Document-RSS</title><g fill="none" fill-rule="evenodd" stroke="none" stroke-width="1"><g fill="#434343"><path d="M5.958,0.042 L0.02,0.042 L0.02,15.953 L11.979,15.953 L11.979,4.042 L5.958,4.042 L5.958,0.042 L5.958,0.042 Z M1.979,13.062 L1.979,10.757 C3.253,10.757 4.285,11.789 4.285,13.062 L1.979,13.062 L1.979,13.062 Z M5.594,13.062 C5.594,10.992 4.024,9.403 1.98,9.403 L1.98,7.83 C4.698,7.83 7.157,10.31 7.157,13.062 L5.594,13.062 L5.594,13.062 Z M10.079,13.037 L8.517,13.037 C8.517,9.351 5.682,6.454 2.01,6.454 L2.01,4.893 C6.377,4.894 10.079,8.653 10.079,13.037 L10.079,13.037 Z" class="si-glyph-fill" transform="translate(2.000000, 0.000000)"/><path d="M7.047,0.036 L7.047,2.989 L11.961,2.989 L7.047,0.036 Z" class="si-glyph-fill" transform="translate(2.000000, 0.000000)"/></g></g></svg>