<svg xmlns="http://www.w3.org/2000/svg" xmlns:xlink="http://www.w3.org/1999/xlink" class="si-glyph si-glyph-axe" version="1.1" viewBox="0 0 17 16"><title>762</title><g fill="none" fill-rule="evenodd" stroke="none" stroke-width="1"><g fill="#434343" transform="translate(1.000000, 0.000000)"><path d="M6.038,8.5 C5.367,9.172 3.93,9.152 1.84,7.062 C-0.248,4.974 -0.207,3.474 0.402,2.865 C1.012,2.255 1.285,3.32 2.765,2.394 C4.244,1.466 4.564,0.487 5.081,1.003 L7.897,3.82 C8.415,4.337 7.1,4.993 6.507,6.136 C5.958,7.201 6.709,7.83 6.038,8.5 L6.038,8.5 Z" class="si-glyph-fill"/><path d="M15.297,14.957 C15.155,15.1 14.836,15.01 14.582,14.756 L7.621,7.796 C7.369,7.543 7.277,7.223 7.42,7.08 L7.997,6.504 C8.138,6.361 8.459,6.453 8.713,6.705 L15.672,13.666 C15.926,13.919 16.016,14.238 15.873,14.381 L15.297,14.957 L15.297,14.957 Z" class="si-glyph-fill"/><rect width=".972" height="1.702" x="2.008" y=".137" class="si-glyph-fill"/></g></g></svg>