<svg xmlns="http://www.w3.org/2000/svg" xmlns:xlink="http://www.w3.org/1999/xlink" class="si-glyph si-glyph-hardware" version="1.1" viewBox="0 0 16 17"><title>Hardware</title><g fill="none" fill-rule="evenodd" stroke="none" stroke-width="1"><g fill="#434343"><path d="M8.007,4.014 C6.369,4.014 5.037,5.349 5.037,6.99 C5.037,8.632 6.369,9.968 8.007,9.968 C9.643,9.968 10.975,8.632 10.975,6.99 C10.975,5.349 9.643,4.014 8.007,4.014 L8.007,4.014 Z M8.007,9.035 C6.881,9.035 5.965,8.118 5.965,6.989 C5.965,5.861 6.881,4.942 8.007,4.942 C9.132,4.942 10.047,5.861 10.047,6.989 C10.047,8.118 9.132,9.035 8.007,9.035 L8.007,9.035 Z" class="si-glyph-fill"/><g transform="translate(6.000000, 11.000000)"><rect width="3.965" height="2" x="0" y="3" class="si-glyph-fill"/><rect width="3.964" height="1.959" x="0" y="0" class="si-glyph-fill"/></g><g class="si-glyph-fill"><rect width="3.716" height="1.468" x="2.016" y="2.662" class="si-glyph-fill" transform="translate(4.016050, 3.162250) rotate(-55.577347) translate(-4.016050, -3.162250)"/><rect width="3.716" height="1.465" x="-.534" y="1.036" class="si-glyph-fill" transform="translate(1.465750, 1.536400) rotate(-55.598003) translate(-1.465750, -1.536400)"/></g><rect width="3.734" height="3.457" x="11.596" y="1.171" class="si-glyph-fill"/></g></g></svg>