<svg xmlns="http://www.w3.org/2000/svg" xmlns:xlink="http://www.w3.org/1999/xlink" class="si-glyph si-glyph-binocular" version="1.1" viewBox="0 0 16 16"><title>78</title><g fill="none" fill-rule="evenodd" stroke="none" stroke-width="1"><g fill="#434343" transform="translate(0.000000, 1.000000)"><rect width="6" height=".916" x="0" y="13" class="si-glyph-fill"/><rect width="6" height=".916" x="10" y="13" class="si-glyph-fill"/><path d="M2.041,2.012 L0.666,11.917 L5.333,11.917 L4.646,8.012 L5.969,8.012 L5.969,2.012 L4.984,2.012 L4.984,0.979 L5.965,0.979 L5.965,0.029 L2.006,0.029 L2.006,0.979 L3,0.979 L3,2.012 L2.041,2.012 Z" class="si-glyph-fill"/><path d="M11,2.012 L10.031,2.012 L10.031,8.012 L11.375,8.012 L10.666,11.917 L15.333,11.917 L13.958,2.012 L12.984,2.012 L12.984,0.979 L13.965,0.979 L13.965,0.029 L10.006,0.029 L10.006,0.979 L11,0.979 L11,2.012 Z" class="si-glyph-fill"/><path d="M8.984,1.016 L7.016,1.016 L7.016,2 L5.969,2 L5.969,3.969 L7.035,3.969 L7.035,7.031 L5.969,7.031 L5.969,8.971 L10.031,8.971 L10.031,7.031 L8.994,7.031 L8.994,3.969 L10.031,3.969 L10.031,2 L8.984,2 L8.984,1.016 Z" class="si-glyph-fill"/></g></g></svg>