<svg xmlns="http://www.w3.org/2000/svg" xmlns:xlink="http://www.w3.org/1999/xlink" class="si-glyph si-glyph-truck" version="1.1" viewBox="0 0 17 16"><title>836</title><g fill="none" fill-rule="evenodd" stroke="none" stroke-width="1"><g fill="#434343" transform="translate(1.000000, 3.000000)"><g class="si-glyph-fill" transform="translate(3.000000, 0.000000)"><ellipse cx="1.438" cy="8.491" class="si-glyph-fill" rx="1.438" ry="1.491"/><ellipse cx="9.463" cy="8.48" class="si-glyph-fill" rx="1.463" ry="1.48"/><path d="M4.031,0.062 L4.031,6.947 L7.495,6.947 C7.965,6.337 8.695,5.937 9.525,5.937 C10.356,5.937 11.087,6.336 11.556,6.947 L12.954,6.947 L12.954,0.062 L4.031,0.062 L4.031,0.062 Z" class="si-glyph-fill"/></g><rect width="2.916" height=".875" x="7" y="8" class="si-glyph-fill"/><rect width=".979" height="1" x="15" y="8" class="si-glyph-fill"/><path d="M1.936,8.521 C1.936,7.094 3.094,5.937 4.521,5.937 C5.062,5.937 5.563,6.104 5.978,6.389 L5.978,2.98 C5.978,2.453 5.575,2.026 5.077,2.026 L1.946,2.026 C1.447,2.026 0.89,2.872 0.89,2.872 C0.89,2.872 0.049,4.377 0.049,5.017 L0.049,8.03 C0.049,8.572 0.445,8.973 0.95,8.973 L1.982,8.973 C1.956,8.824 1.936,8.675 1.936,8.521 L1.936,8.521 Z M1.999,2.929 L5.056,2.95 L5.034,5.062 L1.253,5.062 C1.185,3.786 1.999,2.929 1.999,2.929 L1.999,2.929 Z" class="si-glyph-fill"/></g></g></svg>