<svg xmlns="http://www.w3.org/2000/svg" xmlns:xlink="http://www.w3.org/1999/xlink" class="si-glyph si-glyph-text-search" version="1.1" viewBox="0 0 16 16"><title>102</title><g fill="none" fill-rule="evenodd" stroke="none" stroke-width="1"><g fill="#434343"><rect width="13.931" height=".983" x="0" y="0" class="si-glyph-fill"/><rect width="13.931" height=".942" x="0" y="2" class="si-glyph-fill"/><rect width="10.958" height=".951" x="0" y="14" class="si-glyph-fill"/><g><path d="M4.49,0.054 C2.01,0.054 0,2.047 0,4.506 C0,6.965 2.01,8.958 4.49,8.958 C6.97,8.958 8.979,6.965 8.979,4.506 C8.979,2.047 6.971,0.054 4.49,0.054 L4.49,0.054 Z M4.49,8.018 C2.533,8.018 0.947,6.434 0.947,4.479 C0.947,2.525 2.533,0.938 4.49,0.938 C6.446,0.938 8.031,2.525 8.031,4.479 C8.031,6.434 6.446,8.018 4.49,8.018 L4.49,8.018 Z" class="si-glyph-fill" transform="translate(4.000000, 4.000000)"/><path d="M11.938,10.611 L10.577,11.972 L7.581,8.976 C7.581,8.976 8.151,8.903 8.512,8.542 C8.873,8.18 8.943,7.614 8.943,7.614 L11.938,10.611 L11.938,10.611 Z" class="si-glyph-fill" transform="translate(4.000000, 4.000000)"/><path d="M4.677,2.43 C5.203,2.43 5.006,2.03 4.274,2.03 C3.014,2.03 1.995,3.04 1.995,4.286 C1.995,5.011 2.399,5.207 2.399,4.686 C2.398,3.44 3.418,2.43 4.677,2.43 L4.677,2.43 Z" class="si-glyph-fill" transform="translate(4.000000, 4.000000)"/></g><rect width="3.973" height=".962" x="0" y="4" class="si-glyph-fill"/><rect width="3" height=".973" x="0" y="6" class="si-glyph-fill"/><rect width="2.98" height=".993" x="0" y="8" class="si-glyph-fill"/><rect width="3.02" height=".973" x="0" y="10" class="si-glyph-fill"/><rect width="4" height=".931" x="0" y="12" class="si-glyph-fill"/></g></g></svg>