<svg xmlns="http://www.w3.org/2000/svg" xmlns:xlink="http://www.w3.org/1999/xlink" class="si-glyph si-glyph-open" version="1.1" viewBox="0 0 17 16"><title>Open</title><g fill="none" fill-rule="evenodd" stroke="none" stroke-width="1"><g transform="translate(0.000000, 6.000000)"><g transform="translate(5.000000, 0.000000)"><path d="M1.969,1 L0.969,1 L0.969,3.031 L1.969,3.031 L1.969,2.969 L2,2.969 L2,1 L1.969,1 Z"/><path fill="#434343" d="M0.969,1 L1.969,1 L1.969,0.021 L0.031,0 L0.031,5.958 L0.969,5.958 L0.969,3.938 L1.969,3.938 L1.969,3.031 L0.969,3.031 L0.969,1 Z" class="si-glyph-fill"/><rect width="1" height="1.969" x="2" y="1" fill="#434343" class="si-glyph-fill"/></g><path d="M2.984,1.016 L2.984,0.995 L1,0.995 L1,1.016 L0.984,1.016 L0.984,4.953 L1,4.953 L1,5.031 L2.984,5.031 L2.984,4.953 L3,4.953 L3,1.016 L2.984,1.016 Z"/><rect width=".947" height="3.938" x="3" y="1" fill="#434343" class="si-glyph-fill"/><rect width="1.984" height=".943" x="1" y="0" fill="#434343" class="si-glyph-fill"/><rect width="1.984" height=".953" x="1" y="5" fill="#434343" class="si-glyph-fill"/><rect width=".949" height="3.938" x="0" y="1" fill="#434343" class="si-glyph-fill"/><path fill="#434343" d="M15.031,0.031 L15.031,1.5 L13.969,0.625 L13.969,0.031 L13.016,0.031 L13.016,5.969 L13.969,5.969 L13.969,2.031 L15.031,2.906 L15.031,5.969 L15.953,5.969 L15.953,0.031 L15.031,0.031 Z" class="si-glyph-fill"/><path fill="#434343" d="M10.084,0.026 L9.016,0.026 L9.016,5.989 L10.084,5.989 L10.084,5.969 L11.969,5.969 L11.969,5.031 L9.953,5.031 L9.953,2.969 L11.969,2.969 L11.969,2.031 L9.953,2.031 L9.953,0.953 L11.969,0.953 L11.969,0.047 L10.084,0.047 L10.084,0.026 Z" class="si-glyph-fill"/></g></g></svg>